# xmcd CD database file
#
# Track frame offsets:
#	150
#	14823
#	29086
#
# Disc length: 601 seconds
#
# Revision: 0
# Processed by: cddbd v1.5.2PL0 Copyright (c) Steve Scherf et al.
# Submitted via: CDex 1.70beta2
#
DISCID=25025703
DTITLE=Höhner - Carneval
DYEAR=2011
DGENRE=Schlager
TTITLE0=Carneval
TTITLE1=He brennt die Luft ( kölsche Version )
TTITLE2=Schenk mir dein Herz (Xtreme Sound Party Mix )
EXTD=YEAR: 2011
EXTT0=
EXTT1=
EXTT2=
PLAYORDER=
